<svg xmlns="http://www.w3.org/2000/svg" xmlns:xlink="http://www.w3.org/1999/xlink" viewBox="0 0 1069.67 1115.19"><defs><style>.cls-1{fill:none;}.cls-2{clip-path:url(#clip-path);}.cls-3{clip-path:url(#clip-path-2);}.cls-4{fill:#fff;}.cls-5{clip-path:url(#clip-path-3);}.cls-6{fill:#8df7ff;}.cls-7{fill:#d1d3d4;}.cls-8{fill:#ffd652;}.cls-9{fill:#f9aa38;}.cls-10{fill:#231f20;}.cls-11{fill:#fcf797;}</style><clipPath id="clip-path" transform="translate(216.48 193.95)"><circle class="cls-1" cx="326.88" cy="326.88" r="326.88"/></clipPath><clipPath id="clip-path-2" transform="translate(216.48 193.95)"><ellipse class="cls-1" cx="328.07" cy="327.04" rx="334.39" ry="335.89"/></clipPath><clipPath id="clip-path-3" transform="translate(216.48 193.95)"><rect class="cls-1" x="-213.48" y="-192.95" width="1066.67" height="1066.67"/></clipPath></defs><g id="Layer_2" data-name="Layer 2"><g id="Layer_1-2" data-name="Layer 1"><g class="cls-2"><g class="cls-3"><rect id="canvas_background" data-name="canvas background" class="cls-1" width="802" height="602"/><g id="g10"><path id="path12" class="cls-4" d="M-213.48,921.24H853.19V-145.43H-213.48V921.24Z" transform="translate(216.48 193.95)"/><g id="g14"><g class="cls-5"><g id="g16"><g id="g22"><path id="path24" class="cls-6" d="M528.33,559.58l-102.1-18.53-62-37.06-30.73-46.87-6.95-44.29,22.8-51.5,14.88-15.61,26-9.6h7.87l26.8,14.7,59.57-14.7,21-39.85,34.61-11.79,10.09-10.63s-11.72-89.05-65.68-118.69-98.93-52.32-111.84-56.68S269.87,81.75,247.45,84.85l32.71,15.81s-106.47,7-131.9,41.08h37.89a728.14,728.14,0,0,0-59.31,46.13C96.74,214,99.2,208.58,99.2,208.58l22.89-4.36-73.31,100-30.3,46.64s-7.15-73.49-9-77.34S46.6,178.06,46.6,178.06L121,74.5S266,5.64,270.07,10,427.86,35.64,433.45,33.07,540.1,92.63,540.1,92.63l66.44,85.43L638.8,306.23l4.86,72.4-24.29,70.29-35,62.76-58.09,53.09" transform="translate(216.48 193.95)"/></g><g id="g26"><path id="path28" class="cls-7" d="M380.44,275.17s-41.69-3.09-67,34.51c0,0,15.76-6.65,37-.62,0,0-95.83,35.51-86.84,187,0,0,6.42-26.1,22.07-45,0,0-14.85,124.71,56.54,173.8,51.23,35.23,142.35-16,142.35-16L531,575.8l-4.74-11S416.19,556,396.46,527.16s-66.71-65.41-66.71-65.41-8.17-29.11-6.54-41.53,18-57.94,19.62-64.62,29.32-51.42,29.32-51.42l-11.39-19.7,19.68-9.31Z" transform="translate(216.48 193.95)"/></g><g id="g30"><path id="path32" class="cls-7" d="M467.9,239.07s-13.47-13.59-50.26-25a82.19,82.19,0,0,1,27.06,18.8,17.65,17.65,0,0,0,0,11c2,6.13-11.12,1.64-19.29-10.63,0,0,10,22.89,23.7,28.15,0,0-38,4.26-57.22-15.83,0,0,9.81,18.32,24.52,22.62,0,0-15.53-7.55-28.61-10,0,0,9.1,3.34,14.31,7.36,0,0-21.67-8.18-52.74-3.68,0,0,28.21-2.06,54,13.89l47.42,5.59,4.09-13.16s3.27-7.23,3.27-8,3.18-14.62,3.18-14.62l6.61-6.49Z" transform="translate(216.48 193.95)"/></g><g id="g34"><path id="path36" class="cls-7" d="M524.08,242.71s5.79,15.74,4.25,26.91H514.52S470.38,224.11,415.33,214c0,0,72.44,24.78,94.81,63.22l6,4.09,21.2-.54s1.18-21.67-13.28-38.09" transform="translate(216.48 193.95)"/></g><g id="g38"><path id="path40" class="cls-7" d="M534.94,263l8.47,10.44s6.54-5.38,0-27.92,11.45,22.62,11.45,22.62l-2.18,13.15-7.78,6.72-7.52-3.57Z" transform="translate(216.48 193.95)"/></g><g id="g42"><path id="path44" class="cls-7" d="M270.07,84.85s65.78,7.36,126.91,54c0,0-57.08-33.16-115.46-36l-11.45-18Z" transform="translate(216.48 193.95)"/></g><g id="g46"><path id="path48" class="cls-7" d="M96.74,214s25.35-30.25,78.49-36c0,0-98.92,110-131.22,255.49,0,0-27.3-45.24-29.62-65.34s23.49-38.48,23.49-44,60.5-97.91,60.5-97.91l18.4-18-20,5.72Z" transform="translate(216.48 193.95)"/></g><g id="g50"><path id="path52" class="cls-7" d="M167.36,136.1s28.84-9,68.53,4.38c0,0-37-8.07-80.16,4.23-42.82,12.21-1.07.79-1.07.79Z" transform="translate(216.48 193.95)"/></g><g id="g54"><path id="path56" class="cls-8" d="M502.53,275.17h6l4.36,5.63h24.47l8.78,8.44L593,351.65s8.18,24.53,0,39.79S570.12,423,553.77,424.65s-30.93,3.11-39.25,0-6.95,0-6.95,0l-18.34-6.15s20.39-1.1,24.89-2.94,5.11-8.18,3.67-12.67S505.38,391,505.38,391l-42.77-20.44s-20.76-12.46-22.13-12.87-23.05-8.93-24.27-9.61-9.74-6.39-11.22-7.39S393,335,392,332s-23.45-31.55-24.27-33.8-4.5-12.2-3.27-13.76,9-5.87,10.42-5.87,28,1.85,29.64,2.05,58.87.82,59.48.82,16.35.61,18.19-1,21-4.3,21-4.3l-.75-1Z" transform="translate(216.48 193.95)"/></g><g id="g58"><path id="path60" class="cls-9" d="M505.47,274.94s-7.21,36.88-63.12,17.81c0,0-60.85-10.68-67.46,3.52s-13.46-1.92-13.46-1.92l3.07-9.87s6.88-5.86,8.65-5.86,38.13,4.61,40,2.23,43.07,3.63,43.07,3.63l26-4,23.24-5.52Z" transform="translate(216.48 193.95)"/></g><g id="g62"><path id="path64" class="cls-9" d="M498.28,278.82l7.66,7.77h33.31a16.41,16.41,0,0,0,.72-6.95c-.41-4-7.67,3.47-7.67,3.47l-13.69-2.31-9.2-2.33-4.91-3.3-6.22,3.65Z" transform="translate(216.48 193.95)"/></g><g id="g66"><path id="path68" class="cls-9" d="M521.72,405.75s4.93-13.37-6.38-21.53-11.78-7.36-15.77-12.31-15.08-14-28.31-18.41-17.65-7.43-22.55-10.7-11.61-15.11-20.85-18.6-12.4-11.8-19.22-15.44-9.39-19.11-20.43-22.17-15.56,2.65-15.56,2.65l.73,17s31.42,35.46,39.06,39.49,38.72,14.1,42,15.61,32.7,19.75,39.25,22.89,19.62,12.13,20.44,14.17,7.6,7.36,7.6,7.36" transform="translate(216.48 193.95)"/></g><g id="g70"><path id="path72" class="cls-10" d="M534.91,294.56s-1.84-5.52-4.91-5.32-9.81,2.66-8,5.32,13.69,1.87,12.88,0" transform="translate(216.48 193.95)"/></g><g id="g74"><path id="path76" class="cls-10" d="M537.36,302.12a9.32,9.32,0,0,1-6.34,4.09s5.93.61,6.34-4.09" transform="translate(216.48 193.95)"/></g><g id="g78"><path id="path80" class="cls-10" d="M603.67,350.83l-48.73-61.59,7.36-9.81s-38.22-233-344.61-195.26l-16.35,3.27c25.61-2.72,55,7.63,55,7.63C165,102.15,119,157.21,119,157.21c13.63-8.18,49.6-10.9,49.6-10.9-54.5,23.43-108.46,95.38-108.46,95.38,12.54-12.54,46.87-30,46.87-30C57.44,250.41,9.48,354.52,9.48,354.52L19.84,383.4c49.05-129.72,126.89-193,126.89-193a243.29,243.29,0,0,0-35.33,11c21.26-22.35,91.2-63.57,91.2-63.57a168.61,168.61,0,0,0-39.42.89c79-49.06,172.14-26,172.14-26-39.42-26.41-68.94-23.17-68.95-23.17,76.27,4.37,217.55,6,283.8,184.3L540.1,286.93l50.95,68.67s6,96.48-106,60.37c0,0,29.17,17.32,62.06,12.26,43.6-6.7,63.06-45.52,56.58-77.4" transform="translate(216.48 193.95)"/></g><g id="g82"><path id="path84" class="cls-10" d="M505.47,274.94S498.6,302.89,464,296.27c0,0,11.28-.91,18.19-7,0,0-14.75,5.31-45.41,0s-58.05-7.08-65-4.76c0,0,2.86,44.42,73.58,71s81.76,46.19,78.08,58.45-35.93,2.84-35.93,2.84,26.61,4,27.34-9.79-51.91-35.15-76-43.74-52.32-26.16-59.68-36.79-20-25.89-18.4-42l6.13-5.86h40.48s-28.62-14.31-40.48-15.54c0,0,31.07.41,50.28,10.63l-7.84-7.36s18.74,15.54,42.59,6.13c0,0-17.17-2.45-22.89-9.4,0,0,14.67,4.21,24.94,0a24.42,24.42,0,0,1-17.38-15.33s10.59,12.78,19,10.83c0,0-4.9-11.44,6.54-17.57,0,0-3.86-8.79-10.29-12.82,0,0,36,16.91,53.62,46.75" transform="translate(216.48 193.95)"/></g><g id="g86"><path id="path88" class="cls-10" d="M415,278.48s-58.6-18.26-87.21,15c0,0,21.53-3.82,36.79,1.91l2.18,8.17s-60,11.17-75.49,78.49c0,0,11.72-22.89,35.43-37.88,0,0-68.68,86.49,18.53,185.31,0,0-11.45-20.16-9.81-39.24,0,0,16.9,44.69,54.5,61,0,0-19.62-19.07-22.34-34.33,0,0,53.82,60.5,163.44,58.86,0,0,41.49-20.71,67.11-53.41,0,0-40.88,21.8-85,19.62,0,0,20.17-4.36,34.89-20.71,0,0-110.25,35.29-167.33-19.08-45.79-43.6-33.25-91-33.25-91S361.58,463,412.27,463c0,0-42-22.89-43.6-57.23s10.9-58.87,46.33-58.32l-39.94-26.76-6.39-36.19s4.36-3.55,14.71-3.55,35.43,3.55,35.43,3.55l-3.81-6Z" transform="translate(216.48 193.95)"/></g><g id="g90"><path id="path92" class="cls-10" d="M521.72,412.83s8.43-9,2.36-22.07-14.79-14.17-23-21.53-12.26-10.9-16.62-13.63c0,0,8.72,7.91,13.35,14.17s10.09,8.72,14.45,12.27,7.63,12,6,19.07,0,9.54,0,9.54l3.44,2.18Z" transform="translate(216.48 193.95)"/></g><g id="g94"><path id="path96" class="cls-10" d="M396.46,292.75a44.52,44.52,0,0,1,7.09,9.37,35.83,35.83,0,0,0,15.81,14.24c6.27,2.73,10.63,3.82,15.8,11.17s13.36,13.09,21,14.72,23.43,11.72,28.34,19.08a55.81,55.81,0,0,0-18.8-9.82c-11.18-3.27-25.62-7.9-31.62-17.71s-13.16-11.55-19.07-15c-16.42-9.53-14.18-21.87-18.54-26.06" transform="translate(216.48 193.95)"/></g><g id="g98"><path id="path100" class="cls-11" d="M490.52,260.18a14.62,14.62,0,1,1-14.61-14.62,14.61,14.61,0,0,1,14.61,14.62" transform="translate(216.48 193.95)"/></g><g id="g102"><path id="path104" class="cls-10" d="M483.91,260.18a8,8,0,1,1-8-8,8,8,0,0,1,8,8" transform="translate(216.48 193.95)"/></g><g id="g106"><path id="path108" class="cls-4" d="M480.55,250.88a4.65,4.65,0,1,1-4.64-4.64,4.64,4.64,0,0,1,4.64,4.64" transform="translate(216.48 193.95)"/></g><g id="g110"><path id="path112" class="cls-10" d="M524.08,242.71s16.55,17.24,16,41.77H508.2s-18-36.52-64.86-61.05c0,0,36.52,11.17,68.4,52.87h19.9s2.25-18.6-7.56-33.59" transform="translate(216.48 193.95)"/></g><g id="g114"><path id="path116" class="cls-10" d="M326.57,28.76C162.09,28.76,28.29,162.57,28.29,327s133.8,298.28,298.28,298.28S624.85,491.51,624.85,327,491,28.76,326.57,28.76m0,634.17C141.36,662.93-9.32,512.25-9.32,327S141.36-8.85,326.57-8.85,662.46,141.83,662.46,327,511.78,662.93,326.57,662.93" transform="translate(216.48 193.95)"/></g></g></g></g></g></g></g></g></g></svg>